<svg width="1440" height="5125" viewBox="0 0 1440 5125" fill="none" xmlns="http://www.w3.org/2000/svg">
<g clip-path="url(#clip0)">
<rect width="1440" height="5125" fill="white"/>
<path d="M538.656 0C603.317 30.0955 724.117 118.798 690.04 232.844C647.443 375.402 513.098 343.723 587.807 721.501C662.516 1099.28 700.525 1002.66 606.812 1235.5C513.098 1468.35 605.501 1897.6 625.817 1941.95C646.132 1986.31 809.967 2259.54 687.418 2481.3C564.87 2703.05 558.317 3068.16 614.02 3147.36C669.724 3226.56 874.845 3568.7 712.977 3770.65C551.108 3972.61 447.564 4428 612.71 4586.4C744.826 4713.12 761.69 5074.27 753.608 5239" stroke="#E30004" stroke-width="10"/>
<path d="M535.656 6C600.317 36.0955 721.117 124.798 687.04 238.844C644.443 381.402 510.098 349.723 584.807 727.501C659.516 1105.28 697.525 1008.66 603.812 1241.5C510.098 1474.35 602.501 1903.6 622.817 1947.95C643.132 1992.31 806.967 2265.54 684.418 2487.3C561.87 2709.05 555.317 3074.16 611.02 3153.36C666.724 3232.56 871.845 3574.7 709.977 3776.65C548.108 3978.61 444.564 4434 609.71 4592.4C741.826 4719.12 758.69 5080.27 750.608 5245" stroke="#E30004" stroke-width="10"/>
<path d="M532.656 6C597.317 36.0955 718.117 124.798 684.04 238.844C641.443 381.402 507.098 349.723 581.807 727.501C656.516 1105.28 694.525 1008.66 600.812 1241.5C507.098 1474.35 599.501 1903.6 619.817 1947.95C640.132 1992.31 803.967 2265.54 681.418 2487.3C558.87 2709.05 552.317 3074.16 608.02 3153.36C663.724 3232.56 868.845 3574.7 706.977 3776.65C545.108 3978.61 441.564 4434 606.71 4592.4C738.826 4719.12 755.69 5080.27 747.608 5245" stroke="#E30004" stroke-width="10"/>
<path d="M529.656 6C594.317 36.0955 715.117 124.798 681.04 238.844C638.443 381.402 504.098 349.723 578.807 727.501C653.516 1105.28 691.525 1008.66 597.812 1241.5C504.098 1474.35 596.501 1903.6 616.817 1947.95C637.132 1992.31 800.967 2265.54 678.418 2487.3C555.87 2709.05 549.317 3074.16 605.02 3153.36C660.724 3232.56 865.845 3574.7 703.977 3776.65C542.108 3978.61 438.564 4434 603.71 4592.4C735.826 4719.12 752.69 5080.27 744.608 5245" stroke="#E30004" stroke-width="10"/>
<path d="M526.656 6C591.317 36.0955 712.117 124.798 678.04 238.844C635.443 381.402 501.098 349.723 575.807 727.501C650.516 1105.28 688.525 1008.66 594.812 1241.5C501.098 1474.35 593.501 1903.6 613.817 1947.95C634.132 1992.31 797.967 2265.54 675.418 2487.3C552.87 2709.05 546.317 3074.16 602.02 3153.36C657.724 3232.56 862.845 3574.7 700.977 3776.65C539.108 3978.61 435.564 4434 600.71 4592.4C732.826 4719.12 749.69 5080.27 741.608 5245" stroke="#E30004" stroke-width="10"/>
<path d="M524.656 6C589.317 36.0955 710.117 124.798 676.04 238.844C633.443 381.402 499.098 349.723 573.807 727.501C648.516 1105.28 686.525 1008.66 592.812 1241.5C499.098 1474.35 591.501 1903.6 611.817 1947.95C632.132 1992.31 795.967 2265.54 673.418 2487.3C550.87 2709.05 544.317 3074.16 600.02 3153.36C655.724 3232.56 860.845 3574.7 698.977 3776.65C537.108 3978.61 433.564 4434 598.71 4592.4C730.826 4719.12 747.69 5080.27 739.608 5245" stroke="#E30004" stroke-width="10"/>
<path d="M520.656 6C585.317 36.0955 706.117 124.798 672.04 238.844C629.443 381.402 495.098 349.723 569.807 727.501C644.516 1105.28 682.525 1008.66 588.812 1241.5C495.098 1474.35 587.501 1903.6 607.817 1947.95C628.132 1992.31 791.967 2265.54 669.418 2487.3C546.87 2709.05 540.317 3074.16 596.02 3153.36C651.724 3232.56 856.845 3574.7 694.977 3776.65C533.108 3978.61 429.564 4434 594.71 4592.4C726.826 4719.12 743.69 5080.27 735.608 5245" stroke="#E30004" stroke-width="10"/>
<path d="M519.656 6C584.317 36.0955 705.117 124.798 671.04 238.844C628.443 381.402 494.098 349.723 568.807 727.501C643.516 1105.28 681.525 1008.66 587.812 1241.5C494.098 1474.35 586.501 1903.6 606.817 1947.95C627.132 1992.31 790.967 2265.54 668.418 2487.3C545.87 2709.05 539.317 3074.16 595.02 3153.36C650.724 3232.56 855.845 3574.7 693.977 3776.65C532.108 3978.61 428.564 4434 593.71 4592.4C725.826 4719.12 742.69 5080.27 734.608 5245" stroke="#E30004" stroke-width="10"/>
<path d="M516.656 6C581.317 36.0955 702.117 124.798 668.04 238.844C625.443 381.402 491.098 349.723 565.807 727.501C640.516 1105.28 678.525 1008.66 584.812 1241.5C491.098 1474.35 583.501 1903.6 603.817 1947.95C624.132 1992.31 787.967 2265.54 665.418 2487.3C542.87 2709.05 536.317 3074.16 592.02 3153.36C647.724 3232.56 852.845 3574.7 690.977 3776.65C529.108 3978.61 425.564 4434 590.71 4592.4C722.826 4719.12 739.69 5080.27 731.608 5245" stroke="#E30004" stroke-width="10"/>
<path d="M513.656 6C578.317 36.0955 699.117 124.798 665.04 238.844C622.443 381.402 488.098 349.723 562.807 727.501C637.516 1105.28 675.525 1008.66 581.812 1241.5C488.098 1474.35 580.501 1903.6 600.817 1947.95C621.132 1992.31 784.967 2265.54 662.418 2487.3C539.87 2709.05 533.317 3074.16 589.02 3153.36C644.724 3232.56 849.845 3574.7 687.977 3776.65C526.108 3978.61 422.564 4434 587.71 4592.4C719.826 4719.12 736.69 5080.27 728.608 5245" stroke="#E30004" stroke-width="10"/>
<path d="M510.656 6C575.317 36.0955 696.117 124.798 662.04 238.844C619.443 381.402 485.098 349.723 559.807 727.501C634.516 1105.28 672.525 1008.66 578.812 1241.5C485.098 1474.35 577.501 1903.6 597.817 1947.95C618.132 1992.31 781.967 2265.54 659.418 2487.3C536.87 2709.05 530.317 3074.16 586.02 3153.36C641.724 3232.56 846.845 3574.7 684.977 3776.65C523.108 3978.61 419.564 4434 584.71 4592.4C716.826 4719.12 733.69 5080.27 725.608 5245" stroke="#E30004" stroke-width="10"/>
<path d="M505.656 6C570.317 36.0955 691.117 124.798 657.04 238.844C614.443 381.402 480.098 349.723 554.807 727.501C629.516 1105.28 667.525 1008.66 573.812 1241.5C480.098 1474.35 572.501 1903.6 592.817 1947.95C613.132 1992.31 776.967 2265.54 654.418 2487.3C531.87 2709.05 525.317 3074.16 581.02 3153.36C636.724 3232.56 841.845 3574.7 679.977 3776.65C518.108 3978.61 414.564 4434 579.71 4592.4C711.826 4719.12 728.69 5080.27 720.608 5245" stroke="#E30004" stroke-width="10"/>
<path d="M503.656 6C568.317 36.0955 689.117 124.798 655.04 238.844C612.443 381.402 478.098 349.723 552.807 727.501C627.516 1105.28 665.525 1008.66 571.812 1241.5C478.098 1474.35 570.501 1903.6 590.817 1947.95C611.132 1992.31 774.967 2265.54 652.418 2487.3C529.87 2709.05 523.317 3074.16 579.02 3153.36C634.724 3232.56 839.845 3574.7 677.977 3776.65C516.108 3978.61 412.564 4434 577.71 4592.4C709.826 4719.12 726.69 5080.27 718.608 5245" stroke="#E30004" stroke-width="10"/>
<path d="M500.656 6C565.317 36.0955 686.117 124.798 652.04 238.844C609.443 381.402 475.098 349.723 549.807 727.501C624.516 1105.28 662.525 1008.66 568.812 1241.5C475.098 1474.35 567.501 1903.6 587.817 1947.95C608.132 1992.31 771.967 2265.54 649.418 2487.3C526.87 2709.05 520.317 3074.16 576.02 3153.36C631.724 3232.56 836.845 3574.7 674.977 3776.65C513.108 3978.61 409.564 4434 574.71 4592.4C706.826 4719.12 723.69 5080.27 715.608 5245" stroke="#E30004" stroke-width="10"/>
<path d="M496.656 6C561.317 36.0955 682.117 124.798 648.04 238.844C605.443 381.402 471.098 349.723 545.807 727.501C620.516 1105.28 658.525 1008.66 564.812 1241.5C471.098 1474.35 563.501 1903.6 583.817 1947.95C604.132 1992.31 767.967 2265.54 645.418 2487.3C522.87 2709.05 516.317 3074.16 572.02 3153.36C627.724 3232.56 832.845 3574.7 670.977 3776.65C509.108 3978.61 405.564 4434 570.71 4592.4C702.826 4719.12 719.69 5080.27 711.608 5245" stroke="#E30004" stroke-width="10"/>
<path d="M491.656 6C556.317 36.0955 677.117 124.798 643.04 238.844C600.443 381.402 466.098 349.723 540.807 727.501C615.516 1105.28 653.525 1008.66 559.812 1241.5C466.098 1474.35 558.501 1903.6 578.817 1947.95C599.132 1992.31 762.967 2265.54 640.418 2487.3C517.87 2709.05 511.317 3074.16 567.02 3153.36C622.724 3232.56 827.845 3574.7 665.977 3776.65C504.108 3978.61 400.564 4434 565.71 4592.4C697.826 4719.12 714.69 5080.27 706.608 5245" stroke="#E30004" stroke-width="10"/>
<path d="M489.656 6C554.317 36.0955 675.117 124.798 641.04 238.844C598.443 381.402 464.098 349.723 538.807 727.501C613.516 1105.28 651.525 1008.66 557.812 1241.5C464.098 1474.35 556.501 1903.6 576.817 1947.95C597.132 1992.31 760.967 2265.54 638.418 2487.3C515.87 2709.05 509.317 3074.16 565.02 3153.36C620.724 3232.56 825.845 3574.7 663.977 3776.65C502.108 3978.61 398.564 4434 563.71 4592.4C695.826 4719.12 712.69 5080.27 704.608 5245" stroke="#E30004" stroke-width="10"/>
<path d="M486.617 6C551.013 36.0955 671.321 124.798 637.382 238.844C594.959 381.402 461.163 349.723 535.567 727.501C609.971 1105.28 647.825 1008.66 554.494 1241.5C461.163 1474.35 553.189 1903.6 573.421 1947.95C593.654 1992.31 756.82 2265.54 634.772 2487.3C512.724 2709.05 506.197 3074.16 561.673 3153.36C617.15 3232.56 821.434 3574.7 660.226 3776.65C499.018 3978.61 395.897 4434 560.368 4592.4C691.945 4719.12 708.74 5080.27 700.691 5245" stroke="#E30004" stroke-width="10"/>
<path d="M484.617 6C549.013 36.0955 669.321 124.798 635.382 238.844C592.959 381.402 459.163 349.723 533.567 727.501C607.971 1105.28 645.825 1008.66 552.494 1241.5C459.163 1474.35 551.189 1903.6 571.421 1947.95C591.654 1992.31 754.82 2265.54 632.772 2487.3C510.724 2709.05 504.197 3074.16 559.673 3153.36C615.15 3232.56 819.434 3574.7 658.226 3776.65C497.018 3978.61 393.897 4434 558.368 4592.4C689.945 4719.12 706.74 5080.27 698.691 5245" stroke="#E30004" stroke-width="10"/>
<path d="M479.617 6C544.013 36.0955 664.321 124.798 630.382 238.844C587.959 381.402 454.163 349.723 528.567 727.501C602.971 1105.28 640.825 1008.66 547.494 1241.5C454.163 1474.35 546.189 1903.6 566.421 1947.95C586.654 1992.31 749.82 2265.54 627.772 2487.3C505.724 2709.05 499.197 3074.16 554.673 3153.36C610.15 3232.56 814.434 3574.7 653.226 3776.65C492.018 3978.61 388.897 4434 553.368 4592.4C684.945 4719.12 701.74 5080.27 693.691 5245" stroke="#E30004" stroke-width="10"/>
<path d="M476.617 6C541.013 36.0955 661.321 124.798 627.382 238.844C584.959 381.402 451.163 349.723 525.567 727.501C599.971 1105.28 637.825 1008.66 544.494 1241.5C451.163 1474.35 543.189 1903.6 563.421 1947.95C583.654 1992.31 746.82 2265.54 624.772 2487.3C502.724 2709.05 496.197 3074.16 551.673 3153.36C607.15 3232.56 811.434 3574.7 650.226 3776.65C489.018 3978.61 385.897 4434 550.368 4592.4C681.945 4719.12 698.74 5080.27 690.691 5245" stroke="#E30004" stroke-width="10"/>
<path d="M473.617 6C538.013 36.0955 658.321 124.798 624.382 238.844C581.959 381.402 448.163 349.723 522.567 727.501C596.971 1105.28 634.825 1008.66 541.494 1241.5C448.163 1474.35 540.189 1903.6 560.421 1947.95C580.654 1992.31 743.82 2265.54 621.772 2487.3C499.724 2709.05 493.197 3074.16 548.673 3153.36C604.15 3232.56 808.434 3574.7 647.226 3776.65C486.018 3978.61 382.897 4434 547.368 4592.4C678.945 4719.12 695.74 5080.27 687.691 5245" stroke="#E30004" stroke-width="10"/>
<path d="M469.578 6C533.71 36.0955 653.525 124.798 619.725 238.844C577.476 381.402 444.228 349.723 518.327 727.501C592.426 1105.28 630.125 1008.66 537.177 1241.5C444.228 1474.35 535.877 1903.6 556.026 1947.95C576.176 1992.31 738.673 2265.54 617.125 2487.3C495.577 2709.05 489.077 3074.16 544.326 3153.36C599.575 3232.56 803.022 3574.7 642.475 3776.65C481.927 3978.61 379.229 4434 543.026 4592.4C674.064 4719.12 690.791 5080.27 682.774 5245" stroke="#E30004" stroke-width="10"/>
<path d="M466.538 6C530.407 36.0955 649.728 124.798 616.068 238.844C573.992 381.402 441.293 349.723 515.087 727.501C588.881 1105.28 626.425 1008.66 533.859 1241.5C441.293 1474.35 532.564 1903.6 552.631 1947.95C572.698 1992.31 734.526 2265.54 613.479 2487.3C492.431 2709.05 485.958 3074.16 540.979 3153.36C596.001 3232.56 798.611 3574.7 638.724 3776.65C478.837 3978.61 376.562 4434 539.685 4592.4C670.183 4719.12 686.841 5080.27 678.857 5245" stroke="#E30004" stroke-width="10"/>
<path d="M463.538 6C527.407 36.0955 646.728 124.798 613.068 238.844C570.992 381.402 438.293 349.723 512.087 727.501C585.881 1105.28 623.425 1008.66 530.859 1241.5C438.293 1474.35 529.564 1903.6 549.631 1947.95C569.698 1992.31 731.526 2265.54 610.479 2487.3C489.431 2709.05 482.958 3074.16 537.979 3153.36C593.001 3232.56 795.611 3574.7 635.724 3776.65C475.837 3978.61 373.562 4434 536.685 4592.4C667.183 4719.12 683.841 5080.27 675.857 5245" stroke="#E30004" stroke-width="10"/>
<path d="M460.538 6C524.407 36.0955 643.728 124.798 610.068 238.844C567.992 381.402 435.293 349.723 509.087 727.501C582.881 1105.28 620.425 1008.66 527.859 1241.5C435.293 1474.35 526.564 1903.6 546.631 1947.95C566.698 1992.31 728.526 2265.54 607.479 2487.3C486.431 2709.05 479.958 3074.16 534.979 3153.36C590.001 3232.56 792.611 3574.7 632.724 3776.65C472.837 3978.61 370.562 4434 533.685 4592.4C664.183 4719.12 680.841 5080.27 672.857 5245" stroke="#E30004" stroke-width="10"/>
<path d="M457.578 6C521.71 36.0955 641.525 124.798 607.725 238.844C565.476 381.402 432.228 349.723 506.327 727.501C580.426 1105.28 618.125 1008.66 525.177 1241.5C432.228 1474.35 523.877 1903.6 544.026 1947.95C564.176 1992.31 726.673 2265.54 605.125 2487.3C483.577 2709.05 477.077 3074.16 532.326 3153.36C587.575 3232.56 791.022 3574.7 630.475 3776.65C469.927 3978.61 367.229 4434 531.026 4592.4C662.064 4719.12 678.791 5080.27 670.774 5245" stroke="#E30004" stroke-width="10"/>
<path d="M454.578 6C518.71 36.0955 638.525 124.798 604.725 238.844C562.476 381.402 429.228 349.723 503.327 727.501C577.426 1105.28 615.125 1008.66 522.177 1241.5C429.228 1474.35 520.877 1903.6 541.026 1947.95C561.176 1992.31 723.673 2265.54 602.125 2487.3C480.577 2709.05 474.077 3074.16 529.326 3153.36C584.575 3232.56 788.022 3574.7 627.475 3776.65C466.927 3978.61 364.229 4434 528.026 4592.4C659.064 4719.12 675.791 5080.27 667.774 5245" stroke="#E30004" stroke-width="10"/>
<path d="M449.578 6C513.71 36.0955 633.525 124.798 599.725 238.844C557.476 381.402 424.228 349.723 498.327 727.501C572.426 1105.28 610.125 1008.66 517.177 1241.5C424.228 1474.35 515.877 1903.6 536.026 1947.95C556.176 1992.31 718.673 2265.54 597.125 2487.3C475.577 2709.05 469.077 3074.16 524.326 3153.36C579.575 3232.56 783.022 3574.7 622.475 3776.65C461.927 3978.61 359.229 4434 523.026 4592.4C654.064 4719.12 670.791 5080.27 662.774 5245" stroke="#E30004" stroke-width="10"/>
<path d="M444.538 6C508.407 36.0955 627.728 124.798 594.068 238.844C551.992 381.402 419.293 349.723 493.087 727.501C566.881 1105.28 604.425 1008.66 511.859 1241.5C419.293 1474.35 510.564 1903.6 530.631 1947.95C550.698 1992.31 712.526 2265.54 591.479 2487.3C470.431 2709.05 463.958 3074.16 518.979 3153.36C574.001 3232.56 776.611 3574.7 616.724 3776.65C456.837 3978.61 354.562 4434 517.685 4592.4C648.183 4719.12 664.841 5080.27 656.857 5245" stroke="#E30004" stroke-width="10"/>
<path d="M437.538 6C501.407 36.0955 620.728 124.798 587.068 238.844C544.992 381.402 412.293 349.723 486.087 727.501C559.881 1105.28 597.425 1008.66 504.859 1241.5C412.293 1474.35 503.564 1903.6 523.631 1947.95C543.698 1992.31 705.526 2265.54 584.479 2487.3C463.431 2709.05 456.958 3074.16 511.979 3153.36C567.001 3232.56 769.611 3574.7 609.724 3776.65C449.837 3978.61 347.562 4434 510.685 4592.4C641.183 4719.12 657.841 5080.27 649.857 5245" stroke="#E30004" stroke-width="10"/>
<path d="M428.538 6C492.407 36.0955 611.728 124.798 578.068 238.844C535.992 381.402 403.293 349.723 477.087 727.501C550.881 1105.28 588.425 1008.66 495.859 1241.5C403.293 1474.35 494.564 1903.6 514.631 1947.95C534.698 1992.31 696.526 2265.54 575.479 2487.3C454.431 2709.05 447.958 3074.16 502.979 3153.36C558.001 3232.56 760.611 3574.7 600.724 3776.65C440.837 3978.61 338.562 4434 501.685 4592.4C632.183 4719.12 648.841 5080.27 640.857 5245" stroke="#E30004" stroke-width="10"/>
<path d="M423.538 6C487.407 36.0955 606.728 124.798 573.068 238.844C530.992 381.402 398.293 349.723 472.087 727.501C545.881 1105.28 583.425 1008.66 490.859 1241.5C398.293 1474.35 489.564 1903.6 509.631 1947.95C529.698 1992.31 691.526 2265.54 570.479 2487.3C449.431 2709.05 442.958 3074.16 497.979 3153.36C553.001 3232.56 755.611 3574.7 595.724 3776.65C435.837 3978.61 333.562 4434 496.685 4592.4C627.183 4719.12 643.841 5080.27 635.857 5245" stroke="#E30004" stroke-width="10"/>
<path d="M421.578 6C485.71 36.0955 605.525 124.798 571.725 238.844C529.476 381.402 396.228 349.723 470.327 727.501C544.426 1105.28 582.125 1008.66 489.177 1241.5C396.228 1474.35 487.877 1903.6 508.026 1947.95C528.176 1992.31 690.673 2265.54 569.125 2487.3C447.577 2709.05 441.077 3074.16 496.326 3153.36C551.575 3232.56 755.022 3574.7 594.475 3776.65C433.927 3978.61 331.229 4434 495.026 4592.4C626.064 4719.12 642.791 5080.27 634.774 5245" stroke="#E30004" stroke-width="10"/>
<path d="M413.578 6C477.71 36.0955 597.525 124.798 563.725 238.844C521.476 381.402 388.228 349.723 462.327 727.501C536.426 1105.28 574.125 1008.66 481.177 1241.5C388.228 1474.35 479.877 1903.6 500.026 1947.95C520.176 1992.31 682.673 2265.54 561.125 2487.3C439.577 2709.05 433.077 3074.16 488.326 3153.36C543.575 3232.56 747.022 3574.7 586.475 3776.65C425.927 3978.61 323.229 4434 487.026 4592.4C618.064 4719.12 634.791 5080.27 626.774 5245" stroke="#E30004" stroke-width="10"/>
<path d="M400.578 6C464.71 36.0955 584.525 124.798 550.725 238.844C508.476 381.402 375.228 349.723 449.327 727.501C523.426 1105.28 561.125 1008.66 468.177 1241.5C375.228 1474.35 466.877 1903.6 487.026 1947.95C507.176 1992.31 669.673 2265.54 548.125 2487.3C426.577 2709.05 420.077 3074.16 475.326 3153.36C530.575 3232.56 734.022 3574.7 573.475 3776.65C412.927 3978.61 310.229 4434 474.026 4592.4C605.064 4719.12 621.791 5080.27 613.774 5245" stroke="#E30004" stroke-width="10"/>
<path d="M404.578 6C468.71 36.0955 588.525 124.798 554.725 238.844C512.476 381.402 379.228 349.723 453.327 727.501C527.426 1105.28 565.125 1008.66 472.177 1241.5C379.228 1474.35 470.877 1903.6 491.026 1947.95C511.176 1992.31 673.673 2265.54 552.125 2487.3C430.577 2709.05 424.077 3074.16 479.326 3153.36C534.575 3232.56 738.022 3574.7 577.475 3776.65C416.927 3978.61 314.229 4434 478.026 4592.4C609.064 4719.12 625.791 5080.27 617.774 5245" stroke="#E30004" stroke-width="10"/>
<path d="M395.578 6C459.71 36.0955 579.525 124.798 545.725 238.844C503.476 381.402 370.228 349.723 444.327 727.501C518.426 1105.28 556.125 1008.66 463.177 1241.5C370.228 1474.35 461.877 1903.6 482.026 1947.95C502.176 1992.31 664.673 2265.54 543.125 2487.3C421.577 2709.05 415.077 3074.16 470.326 3153.36C525.575 3232.56 729.022 3574.7 568.475 3776.65C407.927 3978.61 305.229 4434 469.026 4592.4C600.064 4719.12 616.791 5080.27 608.774 5245" stroke="#E30004" stroke-width="10"/>
<path d="M391.538 6C455.407 36.0955 574.728 124.798 541.068 238.844C498.992 381.402 366.293 349.723 440.087 727.501C513.881 1105.28 551.425 1008.66 458.859 1241.5C366.293 1474.35 457.564 1903.6 477.631 1947.95C497.698 1992.31 659.526 2265.54 538.479 2487.3C417.431 2709.05 410.958 3074.16 465.979 3153.36C521.001 3232.56 723.611 3574.7 563.724 3776.65C403.837 3978.61 301.562 4434 464.685 4592.4C595.183 4719.12 611.841 5080.27 603.857 5245" stroke="#E30004" stroke-width="10"/>
<path d="M383.538 6C447.407 36.0955 566.728 124.798 533.068 238.844C490.992 381.402 358.293 349.723 432.087 727.501C505.881 1105.28 543.425 1008.66 450.859 1241.5C358.293 1474.35 449.564 1903.6 469.631 1947.95C489.698 1992.31 651.526 2265.54 530.479 2487.3C409.431 2709.05 402.958 3074.16 457.979 3153.36C513.001 3232.56 715.611 3574.7 555.724 3776.65C395.837 3978.61 293.562 4434 456.685 4592.4C587.183 4719.12 603.841 5080.27 595.857 5245" stroke="#E30004" stroke-width="10"/>
<path d="M378.538 6C442.407 36.0955 561.728 124.798 528.068 238.844C485.992 381.402 353.293 349.723 427.087 727.501C500.881 1105.28 538.425 1008.66 445.859 1241.5C353.293 1474.35 444.564 1903.6 464.631 1947.95C484.698 1992.31 646.526 2265.54 525.479 2487.3C404.431 2709.05 397.958 3074.16 452.979 3153.36C508.001 3232.56 710.611 3574.7 550.724 3776.65C390.837 3978.61 288.562 4434 451.685 4592.4C582.183 4719.12 598.841 5080.27 590.857 5245" stroke="#E30004" stroke-width="10"/>
<path d="M373.578 6C437.71 36.0955 557.525 124.798 523.725 238.844C481.476 381.402 348.228 349.723 422.327 727.501C496.426 1105.28 534.125 1008.66 441.177 1241.5C348.228 1474.35 439.877 1903.6 460.026 1947.95C480.176 1992.31 642.673 2265.54 521.125 2487.3C399.577 2709.05 393.077 3074.16 448.326 3153.36C503.575 3232.56 707.022 3574.7 546.475 3776.65C385.927 3978.61 283.229 4434 447.026 4592.4C578.064 4719.12 594.791 5080.27 586.774 5245" stroke="#E30004" stroke-width="10"/>
<path d="M369.578 6C433.71 36.0955 553.525 124.798 519.725 238.844C477.476 381.402 344.228 349.723 418.327 727.501C492.426 1105.28 530.125 1008.66 437.177 1241.5C344.228 1474.35 435.877 1903.6 456.026 1947.95C476.176 1992.31 638.673 2265.54 517.125 2487.3C395.577 2709.05 389.077 3074.16 444.326 3153.36C499.575 3232.56 703.022 3574.7 542.475 3776.65C381.927 3978.61 279.229 4434 443.026 4592.4C574.064 4719.12 590.791 5080.27 582.774 5245" stroke="#E30004" stroke-width="10"/>
<path d="M363.578 6C427.71 36.0955 547.525 124.798 513.725 238.844C471.476 381.402 338.228 349.723 412.327 727.501C486.426 1105.28 524.125 1008.66 431.177 1241.5C338.228 1474.35 429.877 1903.6 450.026 1947.95C470.176 1992.31 632.673 2265.54 511.125 2487.3C389.577 2709.05 383.077 3074.16 438.326 3153.36C493.575 3232.56 697.022 3574.7 536.475 3776.65C375.927 3978.61 273.229 4434 437.026 4592.4C568.064 4719.12 584.791 5080.27 576.774 5245" stroke="#E30004" stroke-width="10"/>
<path d="M355.578 6C419.71 36.0955 539.525 124.798 505.725 238.844C463.476 381.402 330.228 349.723 404.327 727.501C478.426 1105.28 516.125 1008.66 423.177 1241.5C330.228 1474.35 421.877 1903.6 442.026 1947.95C462.176 1992.31 624.673 2265.54 503.125 2487.3C381.577 2709.05 375.077 3074.16 430.326 3153.36C485.575 3232.56 689.022 3574.7 528.475 3776.65C367.927 3978.61 265.229 4434 429.026 4592.4C560.064 4719.12 576.791 5080.27 568.774 5245" stroke="#E30004" stroke-width="10"/>
<path d="M349.538 6C413.407 36.0955 532.728 124.798 499.068 238.844C456.992 381.402 324.293 349.723 398.087 727.501C471.881 1105.28 509.425 1008.66 416.859 1241.5C324.293 1474.35 415.564 1903.6 435.631 1947.95C455.698 1992.31 617.526 2265.54 496.479 2487.3C375.431 2709.05 368.958 3074.16 423.979 3153.36C479.001 3232.56 681.611 3574.7 521.724 3776.65C361.837 3978.61 259.562 4434 422.685 4592.4C553.183 4719.12 569.841 5080.27 561.857 5245" stroke="#E30004" stroke-width="10"/>
<path d="M342.578 6C406.71 36.0955 526.525 124.798 492.725 238.844C450.476 381.402 317.228 349.723 391.327 727.501C465.426 1105.28 503.125 1008.66 410.177 1241.5C317.228 1474.35 408.877 1903.6 429.026 1947.95C449.176 1992.31 611.673 2265.54 490.125 2487.3C368.577 2709.05 362.077 3074.16 417.326 3153.36C472.575 3232.56 676.022 3574.7 515.475 3776.65C354.927 3978.61 252.229 4434 416.026 4592.4C547.064 4719.12 563.791 5080.27 555.774 5245" stroke="#E30004" stroke-width="10"/>
<path d="M334.578 6C398.71 36.0955 518.525 124.798 484.725 238.844C442.476 381.402 309.228 349.723 383.327 727.501C457.426 1105.28 495.125 1008.66 402.177 1241.5C309.228 1474.35 400.877 1903.6 421.026 1947.95C441.176 1992.31 603.673 2265.54 482.125 2487.3C360.577 2709.05 354.077 3074.16 409.326 3153.36C464.575 3232.56 668.022 3574.7 507.475 3776.65C346.927 3978.61 244.229 4434 408.026 4592.4C539.064 4719.12 555.791 5080.27 547.774 5245" stroke="#E30004" stroke-width="10"/>
<path d="M329.578 6C393.71 36.0955 513.525 124.798 479.725 238.844C437.476 381.402 304.228 349.723 378.327 727.501C452.426 1105.28 490.125 1008.66 397.177 1241.5C304.228 1474.35 395.877 1903.6 416.026 1947.95C436.176 1992.31 598.673 2265.54 477.125 2487.3C355.577 2709.05 349.077 3074.16 404.326 3153.36C459.575 3232.56 663.022 3574.7 502.475 3776.65C341.927 3978.61 239.229 4434 403.026 4592.4C534.064 4719.12 550.791 5080.27 542.774 5245" stroke="#E30004" stroke-width="10"/>
<rect x="-2" y="1" width="476" height="4608" fill="#E30004"/>
<rect x="131" width="419" height="20" fill="#E30004"/>
<rect x="420" y="96" width="114" height="189" fill="#E30004"/>
<rect x="399" y="2054" width="150" height="509" fill="#E30004"/>
<rect x="332" y="3223" width="265" height="729" fill="#E30004"/>
<rect y="4609" width="563" height="516" fill="#E30004"/>
<path d="M537.327 -4C606.473 26.13 735.656 114.934 699.214 229.111C653.661 371.832 509.995 340.116 589.887 718.327C669.78 1096.54 710.427 999.805 610.211 1232.92C509.995 1466.03 608.809 1895.78 630.534 1940.18C652.26 1984.58 827.462 2258.13 696.411 2480.14C565.359 2702.15 558.351 3067.68 617.92 3146.96C677.489 3226.25 896.843 3568.78 723.742 3770.97C550.642 3973.16 439.914 4429.08 616.518 4587.65C757.802 4714.52 775.836 5076.08 767.193 5241" stroke="#0A0A0A" stroke-width="10"/>
<path d="M534.327 -4C603.473 26.13 732.656 114.934 696.214 229.111C650.661 371.832 506.995 340.116 586.887 718.327C666.78 1096.54 707.427 999.805 607.211 1232.92C506.995 1466.03 605.809 1895.78 627.534 1940.18C649.26 1984.58 824.462 2258.13 693.411 2480.14C562.359 2702.15 555.351 3067.68 614.92 3146.96C674.489 3226.25 893.843 3568.78 720.742 3770.97C547.642 3973.16 436.914 4429.08 613.518 4587.65C754.802 4714.52 772.836 5076.08 764.193 5241" stroke="#0A0A0A" stroke-width="10"/>
<path d="M509.327 -4C578.473 26.13 707.656 114.934 671.214 229.111C625.661 371.832 481.995 340.116 561.887 718.327C641.78 1096.54 682.427 999.805 582.211 1232.92C481.995 1466.03 580.809 1895.78 602.534 1940.18C624.26 1984.58 799.462 2258.13 668.411 2480.14C537.359 2702.15 530.351 3067.68 589.92 3146.96C649.489 3226.25 868.843 3568.78 695.742 3770.97C522.642 3973.16 411.914 4429.08 588.518 4587.65C729.802 4714.52 747.836 5076.08 739.193 5241" stroke="#E30004" stroke-width="10"/>
</g>
<defs>
<clipPath id="clip0">
<rect width="1440" height="5125" fill="white"/>
</clipPath>
</defs>
</svg>
